<svg xmlns="http://www.w3.org/2000/svg" viewBox="0 0 32 32">
  <defs>
    <linearGradient id="g" x1="0" y1="0" x2="0" y2="32" gradientUnits="userSpaceOnUse">
      <stop offset="0%" stop-color="#7E8FC2"/>
      <stop offset="50%" stop-color="#E7874C"/>
      <stop offset="100%" stop-color="#7C311B"/>
    </linearGradient>
  </defs>
  <rect width="32" height="32" rx="4" fill="url(#g)"/>
  <g transform="translate(-5.2750,23.1138) scale(0.026812,-0.026812)" fill="#1A2640">
    <path d="M504 457Q494 494 471.5 526.0Q449 558 419.5 582.0Q390 606 355.0 620.0Q320 634 284 634Q239 634 207.5 610.5Q176 587 176 540Q176 504 204.5 479.0Q233 454 276.0 433.5Q319 413 368.5 392.0Q418 371 461.0 341.5Q504 312 532.5 271.0Q561 230 561 169Q561 126 544.0 91.0Q527 56 496.0 31.5Q465 7 421.0 -6.5Q377 -20 323 -20Q298 -20 273.0 -15.5Q248 -11 223.5 -5.5Q199 0 174.0 4.5Q149 9 124 9Q120 9 113.5 7.5Q107 6 99.5 4.0Q92 2 85.0 0.0Q78 -2 74 -4Q66 52 57.0 109.0Q48 166 34 224H56Q67 187 92.0 151.0Q117 115 150.5 86.5Q184 58 223.0 41.0Q262 24 300 24Q333 24 360.0 29.0Q387 34 406.5 45.5Q426 57 436.5 76.5Q447 96 447 126Q447 167 418.0 194.5Q389 222 345.5 244.5Q302 267 251.5 288.0Q201 309 157.5 336.0Q114 363 85.0 400.0Q56 437 56 491Q56 585 113.0 627.5Q170 670 286 670Q316 670 344.0 665.5Q372 661 397.0 655.0Q422 649 444.0 644.5Q466 640 485 640H521Q520 623 519.0 608.0Q518 593 518 577Q518 548 520.5 517.0Q523 486 525 457Z"/>
    <g transform="translate(611,0)"><path d="M413 2Q398 58 374.5 125.0Q351 192 321.5 263.0Q292 334 259.5 405.5Q227 477 195 542H193Q188 499 181.0 460.5Q174 422 167.5 379.5Q161 337 156.5 286.5Q152 236 152 169Q152 135 154.5 108.5Q157 82 168.0 63.5Q179 45 201.0 33.5Q223 22 262 16V-4Q229 -2 196.5 -1.0Q164 0 131 0Q96 0 61.5 -1.0Q27 -2 -8 -4V16Q22 19 41.5 30.0Q61 41 72.5 58.5Q84 76 90.0 99.0Q96 122 100 149Q117 255 129.5 360.5Q142 466 162 572Q145 598 117.0 612.5Q89 627 60 632V656Q102 654 144.5 652.0Q187 650 229 650Q265 650 302.0 651.0Q339 652 375 656V632Q352 629 334.0 619.5Q316 610 316 583Q316 572 330.0 538.0Q344 504 366.0 454.5Q388 405 414.5 344.0Q441 283 465 218Q472 229 486.0 259.0Q500 289 517.0 328.5Q534 368 552.0 411.5Q570 455 584.5 493.0Q599 531 608.5 558.5Q618 586 618 593Q618 602 609.0 609.0Q600 616 587.5 620.5Q575 625 562.5 628.0Q550 631 542 632V656Q581 654 620.0 652.0Q659 650 698 650Q787 650 875 656V632Q828 628 801.0 608.0Q774 588 774 537Q774 526 779.0 490.0Q784 454 791.5 405.5Q799 357 808.0 302.5Q817 248 825.5 201.5Q834 155 840.0 122.5Q846 90 848 85Q855 66 863.0 54.0Q871 42 882.0 34.5Q893 27 908.0 23.0Q923 19 942 16V-4Q904 -2 865.5 -1.0Q827 0 789 0Q738 0 687.5 -1.0Q637 -2 586 -4V14Q610 19 632.5 23.0Q655 27 673.0 36.5Q691 46 701.5 63.0Q712 80 712 110Q712 115 707.5 145.0Q703 175 696.5 218.5Q690 262 681.5 313.5Q673 365 665.0 412.0Q657 459 650.5 496.0Q644 533 640 548H638Q617 478 588.5 411.0Q560 344 531.5 276.5Q503 209 478.5 141.0Q454 73 440 2Z"/></g>
  </g>
</svg>
